<?xml version="1.0" encoding="UTF-8"?><svg id="Layer_1" xmlns="http://www.w3.org/2000/svg" viewBox="0 0 839.03 170.8"><defs><style>.cls-1{fill:#fdf87c;}</style></defs><path class="cls-1" d="M55.31,18.47c11.03,0,28.08,6.26,28.08,18.63,0,3.76-2.44,5.79-5.01,5.79-2.44,0-4.44-1.25-6.73-3.13-3.44-2.5-7.45-3.91-11.46-3.91-15.33,0-25.07,17.53-25.07,37.1,0,15.97,6.16,32.09,19.92,32.09,4.58,0,13.04-4.54,13.04-11.58,0-4.7-3.72-9.55-6.02-12.05-3.29-3.44-4.73-6.26-4.73-8.92,0-6.42,8.02-10.65,17.91-10.65s18.05,4.23,18.05,11.12c0,5.32-6.02,10.18-6.02,14.4,0,5.01,5.3,10.49,5.3,17.06,0,17.69-20.2,27.24-38.26,27.24-29.52,0-52.87-18-52.87-54.01,0-31.31,23.35-59.18,53.87-59.18Z"/><path class="cls-1" d="M169.93,51.66c0,23.33-17.62,18-17.62,26.93,0,8.45,21.92,11.74,21.92,36.48,0,12.52-7.74,23.8-21.21,23.8-8.45,0-15.19-6.89-15.19-14.72,0-8.77,6.88-17.85,6.88-22.39,0-9.86-5.3-13.46-11.46-13.46-7.16,0-10.6,5.48-10.6,10.96,0,7.98,6.16,17.22,6.16,25.36,0,5.48-3.72,13.46-16.76,13.46-6.3,0-14.61-4.38-14.61-13.62s6.45-20.82,6.45-37.26c0-21.13-7.16-35.69-7.16-46.18,0-8.77,4.87-17.38,33.38-17.38,17.34,0,39.83,6.89,39.83,28.02ZM131.96,46.97c-5.59,0-8.31,3.91-8.31,8.92,0,7.2,3.73,10.02,7.88,10.02,5.44,0,9.46-4.38,9.46-11.43,0-5.01-4.15-7.51-9.03-7.51Z"/><path class="cls-1" d="M262.34,76.87c0,25.21-13.18,59.02-42.98,59.02-32.09,0-41.98-26.93-41.98-53.86,0-42.58,14.9-60.74,46.28-61.06,22.64,0,38.69,20.51,38.69,55.89ZM201.45,70.61c0,12.68,3.44,24.27,10.6,24.27,9.6,0,14.33-12.52,14.33-25.05s-4.3-25.21-12.9-25.21-12.04,13.15-12.04,25.99Z"/><path class="cls-1" d="M375.96,61.06c0,30.84-15.19,82.97-40.55,82.97-10.46,0-11.32-12.21-12.47-23.64-.29-3.29-2.72-14.09-5.3-14.09-7.45,0-9.03,30.37-26.08,30.37-19.63,0-25.93-44.31-25.93-84.7,0-15.81,6.02-33.97,22.35-33.97,9.46,0,16.76,7.83,16.76,18.63,0,17.06-15.76,19.88-15.76,40.39,0,13.15,4.16,15.97,7.59,15.97,18.05,0,4.73-34.13,27.08-34.13,13.18,0,16.19,6.73,16.19,16.28,0,8.14-2.15,17.53-2.15,23.64,0,4.07.72,6.42,3.87,6.42,7.59,0,10.03-12.37,10.03-19.73,0-11.58-3.73-24.42-3.73-34.75,0-8.45,3.3-16.12,11.46-16.12,11.03,0,16.62,6.58,16.62,26.46Z"/><path class="cls-1" d="M476.82,20.82c11.75,0,19.49,3.91,19.49,13.93,0,19.1-12.89,25.36-12.89,40.39,0,18.16,11.89,21.6,11.89,44.3,0,11.9-9.03,16.91-18.91,16.91s-16.33-5.79-16.33-13.62c0-8.92,7.45-19.41,7.45-28.96,0-5.95-4.01-13.15-12.9-13.15-7.59,0-13.18,4.7-13.18,14.72,0,4.85,5.88,15.97,5.88,25.36s-6.45,14.87-16.62,14.87-18.63-4.7-18.63-13.93c0-23.17,10.6-23.48,10.6-46.81,0-24.58-10.75-24.11-10.75-38.98,0-11.43,8.31-15.81,20.06-15.81,9.74,0,18.2,3.44,18.2,10.65,0,14.56-10.03,14.25-10.03,25.99,0,8.45,4.73,10.33,11.89,10.33,11.89,0,16.05-5.17,16.05-10.18,0-7.98-10.03-16.28-10.03-24.42,0-9.71,11.75-11.58,18.77-11.58Z"/><path class="cls-1" d="M571.67,37.42c0,5.64-2.87,11.59-2.87,18.16,0,7.2,2.15,15.66,4.87,23.8,5.87,18.32,20.78,30.53,20.78,42.27,0,7.83-8.02,15.66-16.76,15.66-6.88,0-18.05-3.13-18.05-12.84,0-2.97.86-5.95.86-8.92,0-7.2-6.45-12.37-15.9-12.37-8.02,0-14.76,4.07-14.76,11.9,0,3.91,1.43,6.58,1.43,9.39,0,7.98-7.74,12.84-16.19,12.84-9.74,0-15.62-5.32-15.62-13.62,0-17.53,23.93-45.71,23.93-66.85,0-5.79-3.01-12.37-3.01-18.47,0-8.3,5.88-16.28,26.51-16.28,18.2,0,24.79,7.2,24.79,15.34ZM546.03,62.62c-4.58,0-10.46,6.73-10.46,15.97,0,4.85,2.87,11.27,9.31,11.27,5.45,0,9.17-5.79,9.17-12.52,0-4.54-2.15-14.72-8.02-14.72Z"/><path class="cls-1" d="M630.56,27.4c4.58,0,15.62-4.23,25.79-4.23,11.32,0,17.62,7.51,17.62,23.8,0,55.89-52.44,23.8-52.44,42.27,0,21.13,5.45,18.94,5.45,34.29,0,9.08-6.45,12.52-14.18,12.52-10.03,0-15.04-5.64-15.04-12.84,0-9.86,7.16-25.21,7.16-57.46,0-13.93-1.15-22.39-4.01-26.77-1.29-1.88-2.29-4.54-2.29-7.51,0-4.54,2.72-8.45,10.17-8.45,6.73,0,8.02,4.38,21.78,4.38ZM622.82,57.92c0,5.01,2.15,11.74,7.59,11.74,4.44,0,10.17-5.64,10.17-16.12,0-5.17-2.72-9.08-8.88-9.08-4.73,0-8.88,3.44-8.88,13.46Z"/><path class="cls-1" d="M709.51,27.4c4.58,0,15.62-4.23,25.79-4.23,11.32,0,17.62,7.51,17.62,23.8,0,55.89-52.44,23.8-52.44,42.27,0,21.13,5.45,18.94,5.45,34.29,0,9.08-6.45,12.52-14.18,12.52-10.03,0-15.04-5.64-15.04-12.84,0-9.86,7.16-25.21,7.16-57.46,0-13.93-1.15-22.39-4.01-26.77-1.29-1.88-2.29-4.54-2.29-7.51,0-4.54,2.72-8.45,10.17-8.45,6.73,0,8.02,4.38,21.78,4.38ZM701.77,57.92c0,5.01,2.15,11.74,7.59,11.74,4.44,0,10.17-5.64,10.17-16.12,0-5.17-2.72-9.08-8.88-9.08-4.73,0-8.88,3.44-8.88,13.46Z"/><path class="cls-1" d="M800.2,92.37c-5.88,0-13.18,2.5-20.2,2.5-15.9,0-24.79-16.75-24.79-35.69s8.31-37.57,24.79-37.57c8.6,0,12.61,7.04,12.61,12.99,0,9.86-8.6,20.2-8.6,25.05,0,3.6,2.58,12.21,14.47,12.21,4.3,0,10.75-2.35,10.75-9.86,0-12.21-7.31-15.97-7.31-26.61,0-7.2,4.58-13.15,12.32-13.15,9.74,0,23.07,3.6,23.07,36.48,0,46.34-7.88,79.53-44.56,79.53-12.75,0-29.95-7.04-29.95-22.86,0-5.01,3.3-9.71,7.88-9.71,7.45,0,17.05,9.55,26.65,9.55,4.73,0,13.33-3.91,13.33-13.78,0-1.57-.29-3.29-1-4.7-1.58-3.29-6.02-4.38-9.46-4.38Z"/></svg>