<?xml version="1.0" encoding="UTF-8"?><svg id="a" xmlns="http://www.w3.org/2000/svg" viewBox="0 0 1424.78 448.7"><path d="M7.03,439.56c-4.58-5.41-6.93-11.87-7.03-19.4L1.7,100.8c-.06-7.17,2.24-13.44,6.9-18.81,4.67-5.37,10.31-8.06,16.94-8.09l81.73.52c8.73.1,15.47,4.37,20.21,12.8l45.97,97.65,46.74-97.28c5.03-8.45,11.92-12.64,20.66-12.54l82.24.46c6.25-.34,11.66,2.19,16.25,7.6,4.58,5.41,6.93,11.87,7.03,19.4l-1.7,319.37c.06,7.18-2.24,13.44-6.9,18.81-4.67,5.37-10.14,8.05-16.42,8.03l-77.53-.45c-6.28,0-11.8-2.62-16.54-7.83-4.74-5.2-7.15-11.39-7.21-18.57l.41-1.12,4.27-102.75-32.41,59.61c-2.04,3.82-4.96,6.75-8.75,8.79-3.8,2.04-7.96,3.14-12.48,3.28-3.88-.28-7.67-1.47-11.37-3.57-3.71-2.09-6.47-5.01-8.26-8.76l-31.38-58.92,3.49,101.88c.09,7.53-2.27,13.98-7.11,19.37-4.84,5.39-10.58,8.1-17.2,8.12l-75.46-.68c-6.59.39-12.19-2.13-16.77-7.54Z"/><path d="M784.93,423.37c-17.54-20.08-27.9-45.66-31.13-76.72l-26.18-252.24c-.92-7.47.57-14.11,4.45-19.94,3.88-5.83,9.12-9.13,15.71-9.92l78.73-8.27c5.91-.62,11.36,1.14,16.35,5.28,4.99,4.15,7.87,9.62,8.64,16.38l26.3,252.76,5.7-.76c4.55-.31,8.22-.25,10.98.21,2.77.46,5.47,1.85,8.11,4.16,6.44,5.1,9.99,11.59,10.64,19.48l5.97,56.75c.83,7.12-.47,13.35-3.92,18.72-3.46,5.36-8.19,8.92-14.21,10.68l-3.55.82c-9.33,2.88-19.36,5.01-30.08,6.38-37.48,4.25-64.99-3.67-82.51-23.76Z"/><path d="M959.67,420.44c-19.67-15.69-34.52-35.89-44.53-60.59-10.02-24.7-13.85-51.54-11.48-80.51,2.38-28.61,10.73-54.17,25.07-76.7,14.33-22.52,32.71-39.71,55.14-51.57,22.42-11.86,46.33-16.71,71.73-14.56,24.35,2.19,45.55,9.9,63.6,23.13,18.05,13.24,32.23,31.49,42.56,54.76,2.22,5.29,3.22,10.44,3.01,15.44-.59,4.3-1.87,8.26-3.85,11.88-1.99,3.63-4.7,6.38-8.11,8.25l-54.75,36.84c-4.08,3.32-9.25,4.72-15.51,4.18l-3.13-.45c-5.61-1.99-10.41-6.31-14.4-12.98-2.93-5.62-5.71-9.21-8.35-10.74-2.64-1.53-6.23-2.59-10.76-3.18h-.52c-5.57-.54-10.36,1.82-14.39,7.1-4.03,5.29-6.3,11.68-6.79,19.19-.5,7.87.65,14.79,3.41,20.78,2.76,6,7.27,9.26,13.53,9.8,4.87.58,8.94.29,12.21-.87,3.27-1.16,7.43-4.66,12.48-10.51,5.4-5.85,11.58-8.35,18.55-7.47,5.56.57,10.13,2.58,13.7,6.04l46.97,44.2c6.05,5.9,8.68,13.5,7.88,22.8-.22,5.01-2,9.87-5.35,14.6-30.11,43.29-70.39,62.6-120.83,57.93-25.05-2.17-47.41-11.09-67.08-26.79Z"/><path d="M1170.59,439.94c-4.64-5.55-7.02-11.9-7.14-19.08l-.55-332.85c-.16-7.52,2.08-13.99,6.71-19.39,4.63-5.4,10.25-8.14,16.88-8.22l75.46.11c6.59-.43,12.19,2.04,16.82,7.41,4.62,5.37,7.01,11.82,7.17,19.34l.45,64.05c11.11-6.72,24.69-10.14,40.75-10.27,29.69.03,53.25,10.68,70.69,31.93,17.43,21.26,26.26,49.83,26.49,85.71l.44,161.02c.15,7.52-2,13.98-6.45,19.36-4.45,5.38-10,8.11-16.62,8.19l-75.98-.05c-6.59.43-12.21-2.13-16.85-7.68-4.65-5.55-7.03-11.91-7.14-19.08l2.01-153.23c-.08-6.81-.93-11.2-2.54-13.16-1.62-1.96-3.48-2.99-5.59-3.1l-.52.06-.52.06c-2.76.33-5.07,1.51-6.93,3.52-1.87,2.03-2.96,6.28-3.27,12.78l2.64,152.67c.15,7.52-2.17,14-6.96,19.42-4.81,5.42-10.52,8.17-17.14,8.25l-75.46-.11c-6.59.43-12.21-2.13-16.85-7.68Z"/><path d="M394.2,0c.77.29,1.53.7,2.32.84,12.1,2.22,24.21,4.42,36.32,6.61,50.52,9.16,101.05,18.31,151.57,27.47,44.26,8.03,88.52,16.04,132.77,24.14,10.34,1.89,14.03,7.74,12.14,18.41-1.66,9.44-3.32,18.87-4.87,28.33-3.65,22.28-18.53,37.48-40.01,40.91-1.2.19-2.91.98-3.3,1.96-4.1,10.29-7.98,20.66-12.19,31.74,7.49,0,14.24-.19,20.98.05,7.5.26,12.44,5.46,12.51,13.09.11,12.07.24,24.16-.04,36.22-.47,20.93-12.49,37.54-31.83,44.23-2.5.87-3.45,2.17-3.96,4.8-9.97,51.58-20.02,103.15-30.13,154.7-1.98,10.12-6.11,13.43-16.12,13.44-64.25,0-128.49,0-192.74,0-9.99,0-14.28-3.49-16.22-13.41-9.98-51.14-19.95-102.27-29.79-153.44-.68-3.52-1.87-5.37-5.39-6.54-17.03-5.65-29.66-22.47-30.39-40.7-.5-12.49-.35-25.01-.34-37.52,0-10.06,4.8-14.91,14.65-14.96,12.03-.06,24.06-.02,36.09-.02,1.51,0,3.02,0,4.74,0,0-2.49.04-4.37,0-6.25-.55-24.29-1.22-48.58-1.54-72.87-.05-4.07-1.5-5.96-4.75-7.98-15.85-9.88-24.03-24.52-22.58-43.63.9-11.98,3.7-23.8,5.34-35.73C378.34,7.25,381.48,2.67,387.4,0c2.26,0,4.53,0,6.79,0ZM434.91,420.47c59.35,0,118.53,0,178.16,0,9.29-47.72,18.58-95.5,27.95-143.63-78.07,0-155.78,0-234.04,0,9.34,48.04,18.61,95.72,27.93,143.63ZM371.7,206.78c0,9.41-1.04,18.79.29,27.8,1.33,8.93,7.95,14.07,16.87,15.33,1.95.28,3.94.38,5.92.38,86.18.02,172.35.02,258.53.01,11.88,0,20.56-4.81,22.38-14.6,1.74-9.39,1.24-19.21,1.73-28.92-102.66,0-204.23,0-305.73,0ZM426.64,180.14c1.72.08,3.23.21,4.75.21,68.6.01,137.21-.02,205.81.09,3.42,0,4.9-1.07,6.06-4.34,3.77-10.62,7.92-21.09,12.23-32.41-76.97-13.95-153.51-27.82-230.64-41.8.61,26.46,1.19,52.15,1.79,78.25ZM400.63,28.26c-1.14,8.98-3.06,17.54-3.09,26.11-.04,9.95,7.11,17.11,17.31,18.99,30.32,5.59,60.66,11.06,90.99,16.56,48.98,8.89,97.95,17.79,146.93,26.66,7.79,1.41,15.56,3.04,23.41,3.97,11.36,1.34,20.3-5.44,22.65-16.87,1.37-6.67,2.34-13.42,3.59-20.73-100.58-18.23-200.72-36.38-301.79-54.7Z"/></svg>