<?xml version="1.0" encoding="UTF-8"?><svg id="Layer_1" xmlns="http://www.w3.org/2000/svg" viewBox="0 0 2215.4 992.22"><defs><style>.cls-1{fill:#323347;}.cls-2{fill:#fbacfd;}.cls-2,.cls-3,.cls-4,.cls-5{stroke:#000;stroke-miterlimit:10;}.cls-3{fill:#c8efa4;}.cls-6{fill:#8e8c8e;}.cls-4{fill:#fbacfd;}.cls-7{fill:#b6afb4;}.cls-8{fill:#999;}.cls-5{fill:#fdf87c;}</style></defs><path class="cls-1" d="M1378.51,305.16c0,106.09-60.13,162-134.35,162s-134.35-55.9-134.35-162c0-13.26,1.28-27.95,3.62-43.55C1130.02,152.43,1198.96,0,1244.17,0c48.83,0,115.13,152.5,130.88,261.68,2.26,15.6,3.47,30.22,3.47,43.48Z"/><path class="cls-1" d="M1378.51,305.16v168.25c0,3.99-3.24,7.31-7.31,7.31h-254.15c-3.99,0-7.23-3.32-7.23-7.31v-168.25c0-13.26,1.28-27.95,3.62-43.55,1.05-.68,2.26-1.05,3.62-1.05h254.15c1.43,0,2.79.38,3.84,1.13,2.26,15.6,3.47,30.22,3.47,43.48Z"/><rect class="cls-7" x="1224.39" y="396.7" width="39.56" height="242.47" rx="19.78" ry="19.78"/><path class="cls-4" d="M1288.12,612.78c0-15.52-10.25-28.71-24.19-32.7-2.71-.75-5.65-1.21-8.67-1.21h-22.23c-3.01,0-5.95.45-8.67,1.21-13.94,3.99-24.19,17.18-24.19,32.7l-13.04,333.34c0,18.61,14.84,33.91,32.85,33.91h48.3c18.08,0,32.85-15.3,32.85-33.91l-13.03-333.34ZM1244.19,938.13c-16.73,0-30.22-13.56-30.22-30.22s13.49-30.21,30.22-30.21,30.14,13.56,30.14,30.21-13.49,30.22-30.14,30.22Z"/><path class="cls-7" d="M572.48,865.52c0,37.29,16.22,112.05,31.39,112.05,13.08,0,31.4-74.76,31.4-112.05,0-20.59-11.06-51.39-11.06-51.39,12.04-122.67,47.18-221.04,105.24-221.04s93.2,98.37,105.24,221.04c0,0-11.06,30.8-11.06,51.39,0,37.29,19.99,112.05,31.39,112.05s31.39-74.76,31.39-112.05c0-23.76-14.34-56.64-14.34-56.64-14.37-144-63.42-263.92-142.64-263.92s-128.26,119.92-142.63,263.92c0,0-14.34,32.89-14.34,56.64Z"/><path class="cls-7" d="M729.45,342.91h0c10.88,0,19.78,8.9,19.78,19.78v202.92c0,10.88-8.9,19.78-19.78,19.78h0c-10.88,0-19.78-8.9-19.78-19.78v-202.92c0-10.88,8.9-19.78,19.78-19.78Z"/><path class="cls-3" d="M685.49,369.31c0,15.52,10.25,28.71,24.19,32.7,2.71.75,5.65,1.21,8.67,1.21h22.23c3.01,0,5.95-.45,8.67-1.21,13.94-3.99,24.19-17.18,24.19-32.7l13.04-333.34c0-18.61-14.77-33.91-32.85-33.91h-48.3c-18.08,0-32.85,15.3-32.85,33.91l13.03,333.34ZM729.42,43.96c16.73,0,30.21,13.56,30.21,30.22s-13.49,30.21-30.21,30.21-30.14-13.56-30.14-30.21,13.49-30.22,30.14-30.22Z"/><path class="cls-7" d="M188.49,636.73h0c-10.88,0-19.78-8.9-19.78-19.78V147.61c0-10.88,8.9-19.78,19.78-19.78h0c10.88,0,19.78,8.9,19.78,19.78v469.34c0,10.88-8.9,19.78-19.78,19.78Z"/><path class="cls-2" d="M232.46,610.33c0-15.52-10.25-28.71-24.19-32.7-2.71-.75-5.65-1.21-8.67-1.21h-22.23c-3.02,0-5.95.45-8.67,1.21-13.94,3.99-24.19,17.18-24.19,32.7l-13.03,333.34c0,18.61,14.84,33.91,32.85,33.91h48.3c18.08,0,32.85-15.3,32.85-33.91l-13.03-333.34ZM188.53,935.68c-16.73,0-30.21-13.56-30.21-30.22s13.49-30.21,30.21-30.21,30.14,13.56,30.14,30.21-13.49,30.22-30.14,30.22Z"/><path class="cls-7" d="M19.78,222.92h0c-10.88,0-19.78-8.9-19.78-19.78v-55.53c0-10.88,8.9-19.78,19.78-19.78h0c10.88,0,19.78,8.9,19.78,19.78v55.53c0,10.88-8.9,19.78-19.78,19.78Z"/><path class="cls-7" d="M102.38,222.92h0c-10.88,0-19.78-8.9-19.78-19.78v-55.53c0-10.88,8.9-19.78,19.78-19.78h0c10.88,0,19.78,8.9,19.78,19.78v55.53c0,10.88-8.9,19.78-19.78,19.78Z"/><path class="cls-7" d="M270.38,222.92h0c-10.88,0-19.78-8.9-19.78-19.78v-55.53c0-10.88,8.9-19.78,19.78-19.78h0c10.88,0,19.78,8.9,19.78,19.78v55.53c0,10.88-8.9,19.78-19.78,19.78Z"/><path class="cls-7" d="M352.98,222.92h0c-10.88,0-19.78-8.9-19.78-19.78v-55.53c0-10.88,8.9-19.78,19.78-19.78h0c10.88,0,19.78,8.9,19.78,19.78v55.53c0,10.88-8.9,19.78-19.78,19.78Z"/><rect class="cls-7" x="0" y="127.83" width="372.76" height="32.2" rx="16.03" ry="16.03"/><polygon class="cls-8" points="1976.52 452.3 1999.54 378.96 2062.87 404.21 2017 465.93 1976.52 452.3"/><path class="cls-8" d="M1789.77,992.22l159.26-438.24s-28.86-45.96-51.31-35.27c-22.45,10.69-99.4,272.56-110.09,343.11-10.69,70.55,2.14,130.4,2.14,130.4Z"/><path class="cls-7" d="M1917.77,526.46s1.6-14.43,10.42-18.44c8.82-4.01,36.07-60.12,36.07-60.12l21.65-4.01,34.47,17.64s-13.63,43.29-36.07,64.93c-22.45,21.65-35.27,27.52-35.27,27.52l-31.26-27.52Z"/><path class="cls-5" d="M2202.86,24.6l-26.95-11.5c-10.03-4.28-21.73.43-26.01,10.45l-149.96,351.49c-4.28,10.03.43,21.73,10.45,26.01l26.96,11.5c10.03,4.28,21.73-.43,26.01-10.45l149.96-351.49c4.28-10.03-.43-21.73-10.45-26.01Z"/><path class="cls-1" d="M1963.02,448.83l-10.04-3.63c-8.68-3.13-18.34,1.4-21.47,10.07h0c-3.13,8.68,1.4,18.34,10.07,21.47l10.04,3.63c8.68,3.13,18.34-1.4,21.47-10.08h0c3.13-8.68-1.4-18.34-10.08-21.47Z"/><polygon class="cls-8" points="1838.61 455.06 1817.73 378.96 1754.4 404.21 1798.87 464.19 1838.61 455.06"/><path class="cls-7" d="M2027.5,992.22l-159.26-438.24s28.86-45.96,51.31-35.27c22.45,10.69,99.4,272.56,110.09,343.11,10.69,70.55-2.14,130.4-2.14,130.4Z"/><path class="cls-7" d="M1899.5,526.46s-1.6-14.43-10.42-18.44c-8.82-4.01-36.07-60.12-36.07-60.12l-21.65-4.01-34.47,17.64s13.63,43.29,36.08,64.93c22.45,21.65,35.27,27.52,35.27,27.52l31.27-27.52Z"/><path class="cls-5" d="M1614.4,24.6l26.96-11.5c10.03-4.28,21.73.43,26.01,10.45l149.96,351.49c4.28,10.03-.43,21.73-10.45,26.01l-26.96,11.5c-10.03,4.28-21.73-.43-26.01-10.45l-149.96-351.49c-4.28-10.03.43-21.73,10.45-26.01Z"/><path class="cls-1" d="M1854.25,448.83l10.04-3.63c8.68-3.13,18.34,1.4,21.47,10.07h0c3.13,8.68-1.4,18.34-10.08,21.47l-10.04,3.63c-8.68,3.13-18.34-1.4-21.47-10.08h0c-3.13-8.68,1.4-18.34,10.07-21.47Z"/><circle class="cls-6" cx="1910.46" cy="573.23" r="18.14"/><polygon class="cls-6" points="2033.89 951.34 1917.14 613.04 1891.43 617.8 2027.5 992.22 2033.89 951.34"/></svg>